<svg viewBox="0 0 860 564" xmlns="http://www.w3.org/2000/svg" fill="none">

  <defs>
    <linearGradient id="surf" x1="0" y1="0" x2="0" y2="1">
      <stop offset="0" stop-color="#1a1e26"/><stop offset="1" stop-color="#0f1116"/>
    </linearGradient>
    <filter id="raised" x="-40%" y="-40%" width="180%" height="180%">
      <feDropShadow dx="6" dy="6" stdDeviation="7" flood-color="#05060a" flood-opacity="0.9"/>
      <feDropShadow dx="-6" dy="-6" stdDeviation="7" flood-color="#2a3038" flood-opacity="0.5"/>
    </filter>
    <filter id="chip" x="-60%" y="-60%" width="220%" height="220%">
      <feDropShadow dx="2.5" dy="2.5" stdDeviation="3" flood-color="#05060a" flood-opacity="0.8"/>
      <feDropShadow dx="-2.5" dy="-2.5" stdDeviation="3" flood-color="#2a3038" flood-opacity="0.45"/>
    </filter>
    <filter id="glow" x="-50%" y="-50%" width="200%" height="200%">
      <feGaussianBlur stdDeviation="1.6" result="b"/>
      <feMerge><feMergeNode in="b"/><feMergeNode in="SourceGraphic"/></feMerge>
    </filter>
  </defs>
<rect x="20" y="20" width="820" height="524" rx="28" fill="url(#surf)" filter="url(#raised)"/>
<rect x="20" y="20" width="820" height="524" rx="28" fill="none" stroke="#252b34" stroke-width="1"/>
<rect x="66" y="46" width="5" height="20" rx="2.5" fill="#22D3EE" filter="url(#glow)"/>
<text x="82" y="60" font-family="'Cascadia Code','Consolas','Courier New',monospace" font-size="15" font-weight="700" letter-spacing="3" fill="#22D3EE" dominant-baseline="middle">FRONTEND</text>
<rect x="66" y="98" width="73" height="32" rx="9" fill="#13161c" filter="url(#chip)"/>
<rect x="66" y="98" width="73" height="32" rx="9" fill="none" stroke="#22D3EE" stroke-opacity="0.22" stroke-width="1"/>
<text x="102.5" y="115.0" text-anchor="middle" font-family="'Trebuchet MS','Segoe UI',Verdana,sans-serif" font-size="14" fill="#cdd6e0" dominant-baseline="middle">React</text>
<rect x="150" y="98" width="90" height="32" rx="9" fill="#13161c" filter="url(#chip)"/>
<rect x="150" y="98" width="90" height="32" rx="9" fill="none" stroke="#22D3EE" stroke-opacity="0.22" stroke-width="1"/>
<text x="195.0" y="115.0" text-anchor="middle" font-family="'Trebuchet MS','Segoe UI',Verdana,sans-serif" font-size="14" fill="#cdd6e0" dominant-baseline="middle">Next.js</text>
<rect x="251" y="98" width="98" height="32" rx="9" fill="#13161c" filter="url(#chip)"/>
<rect x="251" y="98" width="98" height="32" rx="9" fill="none" stroke="#22D3EE" stroke-opacity="0.22" stroke-width="1"/>
<text x="300.0" y="115.0" text-anchor="middle" font-family="'Trebuchet MS','Segoe UI',Verdana,sans-serif" font-size="14" fill="#cdd6e0" dominant-baseline="middle">Tailwind</text>
<rect x="360" y="98" width="64" height="32" rx="9" fill="#13161c" filter="url(#chip)"/>
<rect x="360" y="98" width="64" height="32" rx="9" fill="none" stroke="#22D3EE" stroke-opacity="0.22" stroke-width="1"/>
<text x="392.0" y="115.0" text-anchor="middle" font-family="'Trebuchet MS','Segoe UI',Verdana,sans-serif" font-size="14" fill="#cdd6e0" dominant-baseline="middle">GSAP</text>
<rect x="435" y="98" width="98" height="32" rx="9" fill="#13161c" filter="url(#chip)"/>
<rect x="435" y="98" width="98" height="32" rx="9" fill="none" stroke="#22D3EE" stroke-opacity="0.22" stroke-width="1"/>
<text x="484.0" y="115.0" text-anchor="middle" font-family="'Trebuchet MS','Segoe UI',Verdana,sans-serif" font-size="14" fill="#cdd6e0" dominant-baseline="middle">Three.js</text>
<rect x="544" y="98" width="64" height="32" rx="9" fill="#13161c" filter="url(#chip)"/>
<rect x="544" y="98" width="64" height="32" rx="9" fill="none" stroke="#22D3EE" stroke-opacity="0.22" stroke-width="1"/>
<text x="576.0" y="115.0" text-anchor="middle" font-family="'Trebuchet MS','Segoe UI',Verdana,sans-serif" font-size="14" fill="#cdd6e0" dominant-baseline="middle">Vite</text>
<rect x="619" y="98" width="116" height="32" rx="9" fill="#13161c" filter="url(#chip)"/>
<rect x="619" y="98" width="116" height="32" rx="9" fill="none" stroke="#22D3EE" stroke-opacity="0.22" stroke-width="1"/>
<text x="677.0" y="115.0" text-anchor="middle" font-family="'Trebuchet MS','Segoe UI',Verdana,sans-serif" font-size="14" fill="#cdd6e0" dominant-baseline="middle">JavaScript</text>
<rect x="746" y="98" width="73" height="32" rx="9" fill="#13161c" filter="url(#chip)"/>
<rect x="746" y="98" width="73" height="32" rx="9" fill="none" stroke="#22D3EE" stroke-opacity="0.22" stroke-width="1"/>
<text x="782.5" y="115.0" text-anchor="middle" font-family="'Trebuchet MS','Segoe UI',Verdana,sans-serif" font-size="14" fill="#cdd6e0" dominant-baseline="middle">HTML5</text>
<rect x="66" y="144" width="64" height="32" rx="9" fill="#13161c" filter="url(#chip)"/>
<rect x="66" y="144" width="64" height="32" rx="9" fill="none" stroke="#22D3EE" stroke-opacity="0.22" stroke-width="1"/>
<text x="98.0" y="161.0" text-anchor="middle" font-family="'Trebuchet MS','Segoe UI',Verdana,sans-serif" font-size="14" fill="#cdd6e0" dominant-baseline="middle">CSS3</text>
<rect x="141" y="144" width="38" height="32" rx="9" fill="#13161c" filter="url(#chip)"/>
<rect x="141" y="144" width="38" height="32" rx="9" fill="none" stroke="#22D3EE" stroke-opacity="0.22" stroke-width="1"/>
<text x="160.0" y="161.0" text-anchor="middle" font-family="'Trebuchet MS','Segoe UI',Verdana,sans-serif" font-size="14" fill="#cdd6e0" dominant-baseline="middle">C</text>
<rect x="66" y="184" width="5" height="20" rx="2.5" fill="#A855F7" filter="url(#glow)"/>
<text x="82" y="198" font-family="'Cascadia Code','Consolas','Courier New',monospace" font-size="15" font-weight="700" letter-spacing="3" fill="#A855F7" dominant-baseline="middle">DATA / AI</text>
<rect x="66" y="236" width="81" height="32" rx="9" fill="#13161c" filter="url(#chip)"/>
<rect x="66" y="236" width="81" height="32" rx="9" fill="none" stroke="#A855F7" stroke-opacity="0.22" stroke-width="1"/>
<text x="106.5" y="253.0" text-anchor="middle" font-family="'Trebuchet MS','Segoe UI',Verdana,sans-serif" font-size="14" fill="#cdd6e0" dominant-baseline="middle">Python</text>
<rect x="158" y="236" width="90" height="32" rx="9" fill="#13161c" filter="url(#chip)"/>
<rect x="158" y="236" width="90" height="32" rx="9" fill="none" stroke="#A855F7" stroke-opacity="0.22" stroke-width="1"/>
<text x="203.0" y="253.0" text-anchor="middle" font-family="'Trebuchet MS','Segoe UI',Verdana,sans-serif" font-size="14" fill="#cdd6e0" dominant-baseline="middle">PyTorch</text>
<rect x="259" y="236" width="73" height="32" rx="9" fill="#13161c" filter="url(#chip)"/>
<rect x="259" y="236" width="73" height="32" rx="9" fill="none" stroke="#A855F7" stroke-opacity="0.22" stroke-width="1"/>
<text x="295.5" y="253.0" text-anchor="middle" font-family="'Trebuchet MS','Segoe UI',Verdana,sans-serif" font-size="14" fill="#cdd6e0" dominant-baseline="middle">NumPy</text>
<rect x="343" y="236" width="81" height="32" rx="9" fill="#13161c" filter="url(#chip)"/>
<rect x="343" y="236" width="81" height="32" rx="9" fill="none" stroke="#A855F7" stroke-opacity="0.22" stroke-width="1"/>
<text x="383.5" y="253.0" text-anchor="middle" font-family="'Trebuchet MS','Segoe UI',Verdana,sans-serif" font-size="14" fill="#cdd6e0" dominant-baseline="middle">Pandas</text>
<rect x="435" y="236" width="55" height="32" rx="9" fill="#13161c" filter="url(#chip)"/>
<rect x="435" y="236" width="55" height="32" rx="9" fill="none" stroke="#A855F7" stroke-opacity="0.22" stroke-width="1"/>
<text x="462.5" y="253.0" text-anchor="middle" font-family="'Trebuchet MS','Segoe UI',Verdana,sans-serif" font-size="14" fill="#cdd6e0" dominant-baseline="middle">n8n</text>
<rect x="66" y="276" width="5" height="20" rx="2.5" fill="#F72585" filter="url(#glow)"/>
<text x="82" y="290" font-family="'Cascadia Code','Consolas','Courier New',monospace" font-size="15" font-weight="700" letter-spacing="3" fill="#F72585" dominant-baseline="middle">PLATFORMS</text>
<rect x="66" y="328" width="55" height="32" rx="9" fill="#13161c" filter="url(#chip)"/>
<rect x="66" y="328" width="55" height="32" rx="9" fill="none" stroke="#F72585" stroke-opacity="0.22" stroke-width="1"/>
<text x="93.5" y="345.0" text-anchor="middle" font-family="'Trebuchet MS','Segoe UI',Verdana,sans-serif" font-size="14" fill="#cdd6e0" dominant-baseline="middle">Git</text>
<rect x="132" y="328" width="81" height="32" rx="9" fill="#13161c" filter="url(#chip)"/>
<rect x="132" y="328" width="81" height="32" rx="9" fill="none" stroke="#F72585" stroke-opacity="0.22" stroke-width="1"/>
<text x="172.5" y="345.0" text-anchor="middle" font-family="'Trebuchet MS','Segoe UI',Verdana,sans-serif" font-size="14" fill="#cdd6e0" dominant-baseline="middle">GitHub</text>
<rect x="224" y="328" width="81" height="32" rx="9" fill="#13161c" filter="url(#chip)"/>
<rect x="224" y="328" width="81" height="32" rx="9" fill="none" stroke="#F72585" stroke-opacity="0.22" stroke-width="1"/>
<text x="264.5" y="345.0" text-anchor="middle" font-family="'Trebuchet MS','Segoe UI',Verdana,sans-serif" font-size="14" fill="#cdd6e0" dominant-baseline="middle">Vercel</text>
<rect x="316" y="328" width="90" height="32" rx="9" fill="#13161c" filter="url(#chip)"/>
<rect x="316" y="328" width="90" height="32" rx="9" fill="none" stroke="#F72585" stroke-opacity="0.22" stroke-width="1"/>
<text x="361.0" y="345.0" text-anchor="middle" font-family="'Trebuchet MS','Segoe UI',Verdana,sans-serif" font-size="14" fill="#cdd6e0" dominant-baseline="middle">Netlify</text>
<rect x="417" y="328" width="98" height="32" rx="9" fill="#13161c" filter="url(#chip)"/>
<rect x="417" y="328" width="98" height="32" rx="9" fill="none" stroke="#F72585" stroke-opacity="0.22" stroke-width="1"/>
<text x="466.0" y="345.0" text-anchor="middle" font-family="'Trebuchet MS','Segoe UI',Verdana,sans-serif" font-size="14" fill="#cdd6e0" dominant-baseline="middle">Firebase</text>
<rect x="526" y="328" width="98" height="32" rx="9" fill="#13161c" filter="url(#chip)"/>
<rect x="526" y="328" width="98" height="32" rx="9" fill="none" stroke="#F72585" stroke-opacity="0.22" stroke-width="1"/>
<text x="575.0" y="345.0" text-anchor="middle" font-family="'Trebuchet MS','Segoe UI',Verdana,sans-serif" font-size="14" fill="#cdd6e0" dominant-baseline="middle">Supabase</text>
<rect x="635" y="328" width="55" height="32" rx="9" fill="#13161c" filter="url(#chip)"/>
<rect x="635" y="328" width="55" height="32" rx="9" fill="none" stroke="#F72585" stroke-opacity="0.22" stroke-width="1"/>
<text x="662.5" y="345.0" text-anchor="middle" font-family="'Trebuchet MS','Segoe UI',Verdana,sans-serif" font-size="14" fill="#cdd6e0" dominant-baseline="middle">AWS</text>
<rect x="701" y="328" width="73" height="32" rx="9" fill="#13161c" filter="url(#chip)"/>
<rect x="701" y="328" width="73" height="32" rx="9" fill="none" stroke="#F72585" stroke-opacity="0.22" stroke-width="1"/>
<text x="737.5" y="345.0" text-anchor="middle" font-family="'Trebuchet MS','Segoe UI',Verdana,sans-serif" font-size="14" fill="#cdd6e0" dominant-baseline="middle">MySQL</text>
<rect x="66" y="374" width="107" height="32" rx="9" fill="#13161c" filter="url(#chip)"/>
<rect x="66" y="374" width="107" height="32" rx="9" fill="none" stroke="#F72585" stroke-opacity="0.22" stroke-width="1"/>
<text x="119.5" y="391.0" text-anchor="middle" font-family="'Trebuchet MS','Segoe UI',Verdana,sans-serif" font-size="14" fill="#cdd6e0" dominant-baseline="middle">WordPress</text>
<rect x="66" y="414" width="5" height="20" rx="2.5" fill="#5EEAD4" filter="url(#glow)"/>
<text x="82" y="428" font-family="'Cascadia Code','Consolas','Courier New',monospace" font-size="15" font-weight="700" letter-spacing="3" fill="#5EEAD4" dominant-baseline="middle">DESIGN</text>
<rect x="66" y="466" width="73" height="32" rx="9" fill="#13161c" filter="url(#chip)"/>
<rect x="66" y="466" width="73" height="32" rx="9" fill="none" stroke="#5EEAD4" stroke-opacity="0.22" stroke-width="1"/>
<text x="102.5" y="483.0" text-anchor="middle" font-family="'Trebuchet MS','Segoe UI',Verdana,sans-serif" font-size="14" fill="#cdd6e0" dominant-baseline="middle">Figma</text>
<rect x="150" y="466" width="73" height="32" rx="9" fill="#13161c" filter="url(#chip)"/>
<rect x="150" y="466" width="73" height="32" rx="9" fill="none" stroke="#5EEAD4" stroke-opacity="0.22" stroke-width="1"/>
<text x="186.5" y="483.0" text-anchor="middle" font-family="'Trebuchet MS','Segoe UI',Verdana,sans-serif" font-size="14" fill="#cdd6e0" dominant-baseline="middle">Canva</text>
<rect x="234" y="466" width="107" height="32" rx="9" fill="#13161c" filter="url(#chip)"/>
<rect x="234" y="466" width="107" height="32" rx="9" fill="none" stroke="#5EEAD4" stroke-opacity="0.22" stroke-width="1"/>
<text x="287.5" y="483.0" text-anchor="middle" font-family="'Trebuchet MS','Segoe UI',Verdana,sans-serif" font-size="14" fill="#cdd6e0" dominant-baseline="middle">Photoshop</text>
<rect x="352" y="466" width="107" height="32" rx="9" fill="#13161c" filter="url(#chip)"/>
<rect x="352" y="466" width="107" height="32" rx="9" fill="none" stroke="#5EEAD4" stroke-opacity="0.22" stroke-width="1"/>
<text x="405.5" y="483.0" text-anchor="middle" font-family="'Trebuchet MS','Segoe UI',Verdana,sans-serif" font-size="14" fill="#cdd6e0" dominant-baseline="middle">Lightroom</text>
<rect x="470" y="466" width="90" height="32" rx="9" fill="#13161c" filter="url(#chip)"/>
<rect x="470" y="466" width="90" height="32" rx="9" fill="none" stroke="#5EEAD4" stroke-opacity="0.22" stroke-width="1"/>
<text x="515.0" y="483.0" text-anchor="middle" font-family="'Trebuchet MS','Segoe UI',Verdana,sans-serif" font-size="14" fill="#cdd6e0" dominant-baseline="middle">Blender</text>
<rect x="571" y="466" width="64" height="32" rx="9" fill="#13161c" filter="url(#chip)"/>
<rect x="571" y="466" width="64" height="32" rx="9" fill="none" stroke="#5EEAD4" stroke-opacity="0.22" stroke-width="1"/>
<text x="603.0" y="483.0" text-anchor="middle" font-family="'Trebuchet MS','Segoe UI',Verdana,sans-serif" font-size="14" fill="#cdd6e0" dominant-baseline="middle">GIMP</text>
</svg>